<!--?xml version="1.0" standalone="no"?-->
<svg id="sw-js-blob-svg" viewBox="0 0 100 100" xmlns="http://www.w3.org/2000/svg" version="1.1">
    <defs> 
        <linearGradient id="sw-gradient" x1="0" x2="1" y1="1" y2="0">
            <stop id="stop1" stop-color="rgba(248, 117, 55, 1)" offset="0%"></stop>
            <stop id="stop2" stop-color="rgba(251, 168, 31, 1)" offset="100%"></stop>
        </linearGradient>
    </defs>
<path fill="url(#sw-gradient)" d="M20.1,-26.2C25.4,-19.5,28.7,-12.6,32,-4.1C35.3,4.3,38.7,14.3,35.6,21.5C32.6,28.7,23.1,33.2,14.4,33.9C5.6,34.7,-2.5,31.8,-11.6,29.5C-20.8,27.2,-31.1,25.6,-36.3,19.5C-41.5,13.5,-41.6,3.1,-39.9,-7.1C-38.1,-17.3,-34.6,-27.2,-27.7,-33.6C-20.7,-40.1,-10.4,-43,-1.5,-41.2C7.4,-39.5,14.8,-32.9,20.1,-26.2Z" width="100%" height="100%" transform="translate(50 50)" stroke-width="0" style="transition: 0.3s;"></path>
</svg>